# Created by FreeCAD <https://www.freecad.org>
v -4.660951 4.581688 0.000000
v -5.621982 3.333114 0.000000
v -4.660951 4.581688 6.000000
v -5.621982 3.333114 6.000000
v -6.256284 1.890832 0.000000
v -6.256284 1.890832 6.000000
v -6.526993 0.338661 0.000000
v -6.526993 0.338661 6.000000
v -6.418377 -1.233192 6.000000
v -6.418377 -1.233192 0.000000
v -5.936749 -2.733376 0.000000
v -5.936749 -2.733376 6.000000
v -5.110098 -4.074706 0.000000
v -5.110098 -4.074706 6.000000
v -3.986467 -5.179229 6.000000
v -3.986467 -5.179229 0.000000
v -2.631157 -5.982754 0.000000
v -2.631157 -5.982754 6.000000
v -1.122934 -6.438583 0.000000
v -1.122934 -6.438583 6.000000
v 0.450550 -6.520225 0.000000
v 0.450550 -6.520225 6.000000
v 1.997850 -6.222935 6.000000
v 1.997850 -6.222935 0.000000
v 3.429042 -5.563991 0.000000
v 3.429042 -5.563991 6.000000
v 4.660951 -4.581688 0.000000
v 4.660951 -4.581688 6.000000
v 12.470995 22.010014 0.000000
v 12.470995 22.010014 6.000000
v 21.792896 12.846638 0.000000
v 21.792896 12.846638 6.000000
v 16.681395 23.948551 0.000000
v 22.753927 14.095212 0.000000
v 15.134095 23.651260 0.000000
v 13.702904 22.992317 0.000000
v 23.658939 17.089664 0.000000
v 23.388229 15.537495 0.000000
v 18.254879 23.866909 0.000000
v 22.242044 21.503033 0.000000
v 23.550323 18.661518 0.000000
v 23.068695 20.161701 0.000000
v 21.118412 22.607555 0.000000
v 19.763103 23.411079 0.000000
v -2.958479 -3.414267 6.000000
v -3.800550 -2.442466 6.000000
v -1.876730 -4.109466 6.000000
v -4.334723 -1.272790 6.000000
v -0.642939 -4.471739 6.000000
v -4.517723 0.000000 6.000000
v 0.642939 -4.471739 6.000000
v -4.334723 1.272790 6.000000
v 1.876730 -4.109466 6.000000
v -3.800550 2.442466 6.000000
v 2.958479 -3.414267 6.000000
v -2.958479 3.414267 6.000000
v 3.800550 -2.442466 6.000000
v -1.876730 4.109466 6.000000
v 4.334723 -1.272790 6.000000
v -0.642939 4.471739 6.000000
v 4.517723 0.000000 6.000000
v 1.876730 4.109466 6.000000
v 2.958479 3.414267 6.000000
v 0.642939 4.471739 6.000000
v 4.334723 1.272790 6.000000
v 3.800550 2.442466 6.000000
v 16.681395 23.948551 6.000000
v 22.753927 14.095212 6.000000
v 15.134095 23.651260 6.000000
v 13.702904 22.992317 6.000000
v 23.658939 17.089664 6.000000
v 23.388229 15.537495 6.000000
v 18.254879 23.866909 6.000000
v 22.242044 21.503033 6.000000
v 23.550323 18.661518 6.000000
v 23.068695 20.161701 6.000000
v 21.118412 22.607555 6.000000
v 19.763103 23.411079 6.000000
v 4.237445 0.000000 8.666667
v 3.496929 1.136221 14.000000
v 3.676889 0.000000 14.000000
v 3.957167 0.000000 11.333333
v 3.496929 -1.136221 14.000000
v 3.871099 1.723524 8.666667
v 2.835404 3.149035 8.666667
v 3.615052 1.609525 11.333333
v 2.974666 2.161221 14.000000
v 1.309443 4.030050 8.666667
v 2.647862 2.940748 11.333333
v 2.161221 2.974666 14.000000
v -0.442934 4.214232 8.666667
v 1.222832 3.763489 11.333333
v 1.136221 3.496929 14.000000
v 0.000000 3.676889 14.000000
v -2.118722 3.669735 8.666667
v -0.413637 3.935489 11.333333
v -1.136221 3.496929 14.000000
v -3.428165 2.490708 8.666667
v -1.978584 3.427007 11.333333
v -2.161221 2.974666 14.000000
v -4.144847 0.881014 8.666667
v -3.201415 2.325964 11.333333
v -2.974666 2.161221 14.000000
v -3.496929 1.136221 14.000000
v -4.144847 -0.881014 8.666667
v -3.870693 0.822741 11.333333
v -3.676889 0.000000 14.000000
v -3.428165 -2.490708 8.666667
v -3.870693 -0.822741 11.333333
v -3.496929 -1.136221 14.000000
v -2.118722 -3.669735 8.666667
v -3.201415 -2.325964 11.333333
v -2.974666 -2.161221 14.000000
v -2.161221 -2.974666 14.000000
v -0.442934 -4.214232 8.666667
v -1.978584 -3.427007 11.333333
v -1.136221 -3.496929 14.000000
v 1.309443 -4.030050 8.666667
v -0.413637 -3.935489 11.333333
v -0.000000 -3.676889 14.000000
v 2.835404 -3.149035 8.666667
v 1.222832 -3.763489 11.333333
v 1.136221 -3.496929 14.000000
v 2.161221 -2.974666 14.000000
v 3.871099 -1.723524 8.666667
v 2.647862 -2.940748 11.333333
v 2.974666 -2.161221 14.000000
v 3.615052 -1.609525 11.333333
v -4.660951 4.581688 0.000000
v -5.621982 3.333114 0.000000
v -4.660951 4.581688 6.000000
v -5.621982 3.333114 6.000000
v -6.256284 1.890832 0.000000
v -6.256284 1.890832 6.000000
v -6.526993 0.338661 0.000000
v -6.526993 0.338661 6.000000
v -6.418377 -1.233192 6.000000
v -6.418377 -1.233192 0.000000
v -5.936749 -2.733376 0.000000
v -5.936749 -2.733376 6.000000
v -5.110098 -4.074706 0.000000
v -5.110098 -4.074706 6.000000
v -3.986467 -5.179229 6.000000
v -3.986467 -5.179229 0.000000
v -2.631157 -5.982754 0.000000
v -2.631157 -5.982754 6.000000
v -1.122934 -6.438583 0.000000
v -1.122934 -6.438583 6.000000
v 0.450550 -6.520225 0.000000
v 0.450550 -6.520225 6.000000
v 1.997850 -6.222935 6.000000
v 1.997850 -6.222935 0.000000
v 3.429042 -5.563991 0.000000
v 3.429042 -5.563991 6.000000
v 4.660951 -4.581688 0.000000
v 4.660951 -4.581688 6.000000
v 12.470995 22.010014 0.000000
v 12.470995 22.010014 6.000000
v 21.792896 12.846638 0.000000
v 21.792896 12.846638 6.000000
v 16.681395 23.948551 0.000000
v 22.753927 14.095212 0.000000
v 15.134095 23.651260 0.000000
v 13.702904 22.992317 0.000000
v 23.658939 17.089664 0.000000
v 23.388229 15.537495 0.000000
v 18.254879 23.866909 0.000000
v 22.242044 21.503033 0.000000
v 23.550323 18.661518 0.000000
v 23.068695 20.161701 0.000000
v 21.118412 22.607555 0.000000
v 19.763103 23.411079 0.000000
v -2.958479 -3.414267 6.000000
v -3.800550 -2.442466 6.000000
v -1.876730 -4.109466 6.000000
v -4.334723 -1.272790 6.000000
v -0.642939 -4.471739 6.000000
v -4.517723 0.000000 6.000000
v 0.642939 -4.471739 6.000000
v -4.334723 1.272790 6.000000
v 1.876730 -4.109466 6.000000
v -3.800550 2.442466 6.000000
v 2.958479 -3.414267 6.000000
v -2.958479 3.414267 6.000000
v 3.800550 -2.442466 6.000000
v -1.876730 4.109466 6.000000
v 4.334723 -1.272790 6.000000
v -0.642939 4.471739 6.000000
v 4.517723 0.000000 6.000000
v 1.876730 4.109466 6.000000
v 2.958479 3.414267 6.000000
v 0.642939 4.471739 6.000000
v 4.334723 1.272790 6.000000
v 3.800550 2.442466 6.000000
v 16.681395 23.948551 6.000000
v 22.753927 14.095212 6.000000
v 15.134095 23.651260 6.000000
v 13.702904 22.992317 6.000000
v 23.658939 17.089664 6.000000
v 23.388229 15.537495 6.000000
v 18.254879 23.866909 6.000000
v 22.242044 21.503033 6.000000
v 23.550323 18.661518 6.000000
v 23.068695 20.161701 6.000000
v 21.118412 22.607555 6.000000
v 19.763103 23.411079 6.000000
v 4.237445 0.000000 8.666667
v 3.496929 1.136221 14.000000
v 3.676889 0.000000 14.000000
v 3.957167 0.000000 11.333333
v 3.496929 -1.136221 14.000000
v 3.871099 1.723524 8.666667
v 2.835404 3.149035 8.666667
v 3.615052 1.609525 11.333333
v 2.974666 2.161221 14.000000
v 1.309443 4.030050 8.666667
v 2.647862 2.940748 11.333333
v 2.161221 2.974666 14.000000
v -0.442934 4.214232 8.666667
v 1.222832 3.763489 11.333333
v 1.136221 3.496929 14.000000
v 0.000000 3.676889 14.000000
v -2.118722 3.669735 8.666667
v -0.413637 3.935489 11.333333
v -1.136221 3.496929 14.000000
v -3.428165 2.490708 8.666667
v -1.978584 3.427007 11.333333
v -2.161221 2.974666 14.000000
v -4.144847 0.881014 8.666667
v -3.201415 2.325964 11.333333
v -2.974666 2.161221 14.000000
v -3.496929 1.136221 14.000000
v -4.144847 -0.881014 8.666667
v -3.870693 0.822741 11.333333
v -3.676889 0.000000 14.000000
v -3.428165 -2.490708 8.666667
v -3.870693 -0.822741 11.333333
v -3.496929 -1.136221 14.000000
v -2.118722 -3.669735 8.666667
v -3.201415 -2.325964 11.333333
v -2.974666 -2.161221 14.000000
v -2.161221 -2.974666 14.000000
v -0.442934 -4.214232 8.666667
v -1.978584 -3.427007 11.333333
v -1.136221 -3.496929 14.000000
v 1.309443 -4.030050 8.666667
v -0.413637 -3.935489 11.333333
v -0.000000 -3.676889 14.000000
v 2.835404 -3.149035 8.666667
v 1.222832 -3.763489 11.333333
v 1.136221 -3.496929 14.000000
v 2.161221 -2.974666 14.000000
v 3.871099 -1.723524 8.666667
v 2.647862 -2.940748 11.333333
v 2.974666 -2.161221 14.000000
v 3.615052 -1.609525 11.333333
vn -0.792443 0.609946 0.000000
vn -0.792443 0.609946 0.000000
vn -0.915386 0.402578 0.000000
vn -0.915386 0.402578 0.000000
vn -0.985130 0.171813 0.000000
vn -0.997621 -0.068936 -0.000000
vn -0.985130 0.171813 0.000000
vn -0.997621 -0.068936 0.000000
vn -0.952134 -0.305679 0.000000
vn -0.952134 -0.305679 0.000000
vn -0.851313 -0.524658 0.000000
vn -0.701017 -0.713144 -0.000000
vn -0.851313 -0.524658 0.000000
vn -0.701017 -0.713144 0.000000
vn -0.509980 -0.860186 0.000000
vn -0.509980 -0.860186 0.000000
vn -0.289305 -0.957237 0.000000
vn -0.289305 -0.957237 0.000000
vn -0.051817 -0.998657 0.000000
vn 0.188683 -0.982038 0.000000
vn -0.051817 -0.998657 0.000000
vn 0.188683 -0.982038 0.000000
vn 0.418218 -0.908347 0.000000
vn 0.418218 -0.908347 0.000000
vn 0.623447 -0.781866 0.000000
vn 0.623447 -0.781866 0.000000
vn -0.713145 0.701017 0.000000
vn -0.713145 0.701017 0.000000
vn 0.713145 -0.701017 0.000000
vn 0.713145 -0.701017 0.000000
vn 0.000000 0.000000 -1.000000
vn 0.000000 0.000000 -1.000000
vn 0.000000 0.000000 -1.000000
vn 0.000000 0.000000 -1.000000
vn 0.000000 0.000000 -1.000000
vn 0.000000 0.000000 -1.000000
vn 0.000000 0.000000 -1.000000
vn 0.000000 -0.000000 -1.000000
vn 0.000000 -0.000000 -1.000000
vn 0.000000 0.000000 -1.000000
vn 0.000000 0.000000 -1.000000
vn 0.000000 0.000000 -1.000000
vn 0.000000 0.000000 -1.000000
vn 0.000000 -0.000000 -1.000000
vn 0.000000 0.000000 -1.000000
vn 0.000000 -0.000000 -1.000000
vn 0.000000 -0.000000 -1.000000
vn 0.000000 0.000000 -1.000000
vn 0.000000 0.000000 -1.000000
vn 0.000000 0.000000 -1.000000
vn 0.000000 0.000000 -1.000000
vn 0.000000 0.000000 -1.000000
vn 0.000000 0.000000 -1.000000
vn -0.000000 -0.000000 -1.000000
vn -0.000000 -0.000000 -1.000000
vn 0.000000 0.000000 -1.000000
vn 0.000000 0.000000 1.000000
vn 0.000000 0.000000 1.000000
vn 0.000000 0.000000 1.000000
vn 0.000000 0.000000 1.000000
vn 0.000000 0.000000 1.000000
vn 0.000000 0.000000 1.000000
vn 0.000000 0.000000 1.000000
vn 0.000000 0.000000 1.000000
vn 0.000000 0.000000 1.000000
vn 0.000000 0.000000 1.000000
vn 0.000000 0.000000 1.000000
vn 0.000000 0.000000 1.000000
vn 0.000000 0.000000 1.000000
vn 0.000000 0.000000 1.000000
vn 0.000000 0.000000 1.000000
vn 0.000000 0.000000 1.000000
vn 0.000000 0.000000 1.000000
vn 0.000000 0.000000 1.000000
vn 0.000000 0.000000 1.000000
vn 0.000000 0.000000 1.000000
vn 0.000000 0.000000 1.000000
vn 0.000000 0.000000 1.000000
vn 0.000000 0.000000 1.000000
vn 0.000000 0.000000 1.000000
vn 0.000000 0.000000 1.000000
vn 0.000000 0.000000 1.000000
vn 0.000000 0.000000 1.000000
vn 0.000000 0.000000 1.000000
vn 0.000000 0.000000 1.000000
vn 0.000000 0.000000 1.000000
vn 0.000000 0.000000 1.000000
vn 0.000000 0.000000 1.000000
vn 0.000000 0.000000 1.000000
vn 0.000000 0.000000 1.000000
vn 0.000000 0.000000 1.000000
vn 0.000000 0.000000 1.000000
vn 0.000000 0.000000 1.000000
vn 0.000000 0.000000 1.000000
vn 0.000000 0.000000 1.000000
vn 0.000000 0.000000 1.000000
vn 0.000000 0.000000 1.000000
vn 0.000000 0.000000 1.000000
vn 0.000000 0.000000 1.000000
vn 0.000000 0.000000 1.000000
vn 0.000000 0.000000 1.000000
vn 0.000000 0.000000 1.000000
vn 0.000000 0.000000 1.000000
vn 0.000000 0.000000 1.000000
vn 0.000000 0.000000 1.000000
vn 0.000000 0.000000 1.000000
vn 0.792443 -0.609946 0.000000
vn 0.792443 -0.609946 0.000000
vn 0.915386 -0.402578 0.000000
vn 0.915386 -0.402578 0.000000
vn 0.985129 -0.171814 0.000000
vn 0.997621 0.068936 0.000000
vn 0.985129 -0.171814 0.000000
vn 0.997621 0.068936 0.000000
vn 0.952134 0.305679 0.000000
vn 0.952134 0.305679 -0.000000
vn 0.851314 0.524657 0.000000
vn 0.851314 0.524657 -0.000000
vn 0.701016 0.713145 0.000000
vn 0.509980 0.860186 0.000000
vn 0.701016 0.713145 -0.000000
vn 0.289305 0.957237 0.000000
vn 0.509980 0.860186 0.000000
vn 0.051817 0.998657 0.000000
vn 0.289305 0.957237 0.000000
vn 0.051817 0.998657 0.000000
vn -0.188684 0.982038 0.000000
vn -0.418217 0.908347 0.000000
vn -0.188684 0.982038 0.000000
vn -0.418217 0.908347 0.000000
vn -0.623447 0.781866 0.000000
vn -0.623447 0.781866 0.000000
vn 0.984508 0.141551 0.103476
vn 0.982409 0.155598 0.103255
vn 0.984508 -0.141551 0.103476
vn 0.982409 -0.155598 0.103255
vn 0.906136 0.413818 0.087594
vn 0.969365 0.206045 0.133706
vn 0.751998 0.651610 0.099518
vn 0.537479 0.836334 0.107990
vn 0.801523 0.582340 0.135796
vn 0.884655 0.450754 0.119190
vn 0.973019 0.206822 0.102268
vn 0.975015 0.207246 0.079973
vn 0.973019 0.206821 0.102268
vn 0.280635 0.955757 0.088164
vn 0.495690 0.858560 0.131018
vn 0.702066 0.702066 0.119190
vn 0.804775 0.584703 0.102268
vn 0.806889 0.586239 0.072485
vn 0.804775 0.584703 0.102268
vn 0.103539 0.985105 0.137288
vn 0.000000 0.995370 0.096118
vn -0.279926 0.953341 0.113055
vn 0.451564 0.886244 0.103255
vn 0.155598 0.982409 0.103255
vn 0.497378 0.861485 0.102268
vn 0.497378 0.861485 0.102268
vn 0.498398 0.863252 0.079973
vn -0.538481 0.837892 0.089302
vn -0.306486 0.943266 0.127731
vn -0.155319 0.980648 0.119191
vn 0.103980 0.989308 0.102268
vn 0.104194 0.991336 0.079973
vn 0.103981 0.989307 0.102269
vn -0.752454 0.652005 0.093281
vn -0.903205 0.412480 0.118666
vn -0.662711 0.736016 0.138183
vn -0.307397 0.946070 0.102268
vn -0.665622 0.739248 0.102268
vn -0.450754 0.884655 0.119190
vn -0.308204 0.948555 0.072485
vn -0.307397 0.946070 0.102268
vn -0.985714 0.141724 0.091008
vn -0.906513 0.403606 0.123843
vn -0.703327 0.703327 0.103255
vn -0.886244 0.451564 0.103255
vn -0.666987 0.740765 0.079973
vn -0.665622 0.739248 0.102268
vn -0.990365 0.000000 0.138481
vn -0.985714 -0.141724 0.091008
vn -0.980648 0.155319 0.119190
vn -0.994757 0.000000 0.102269
vn -0.908756 0.404604 0.102268
vn -0.910619 0.405434 0.079973
vn -0.908756 0.404604 0.102269
vn -0.903205 -0.412480 0.118666
vn -0.752454 -0.652005 0.093281
vn -0.906513 -0.403606 0.123843
vn -0.994757 0.000000 0.102269
vn -0.980648 -0.155319 0.119190
vn -0.997369 0.000000 0.072485
vn -0.538481 -0.837892 0.089302
vn -0.662711 -0.736016 0.138183
vn -0.908756 -0.404604 0.102268
vn -0.886244 -0.451564 0.103255
vn -0.703327 -0.703327 0.103255
vn -0.910619 -0.405434 0.079973
vn -0.908756 -0.404604 0.102269
vn -0.279926 -0.953341 0.113055
vn 0.000000 -0.995370 0.096118
vn -0.306486 -0.943266 0.127731
vn -0.665622 -0.739248 0.102268
vn -0.665622 -0.739248 0.102268
vn -0.450754 -0.884655 0.119190
vn -0.666987 -0.740765 0.079973
vn 0.280635 -0.955757 0.088164
vn 0.103539 -0.985105 0.137288
vn -0.308204 -0.948555 0.072485
vn -0.307397 -0.946070 0.102268
vn -0.307397 -0.946070 0.102268
vn -0.155319 -0.980648 0.119191
vn 0.537479 -0.836334 0.107990
vn 0.751998 -0.651610 0.099518
vn 0.495690 -0.858560 0.131018
vn 0.104194 -0.991336 0.079973
vn 0.103980 -0.989308 0.102268
vn 0.155598 -0.982409 0.103255
vn 0.451564 -0.886244 0.103255
vn 0.103981 -0.989307 0.102268
vn 0.497378 -0.861485 0.102268
vn 0.906136 -0.413818 0.087594
vn 0.969365 -0.206045 0.133706
vn 0.801523 -0.582340 0.135796
vn 0.702066 -0.702066 0.119190
vn 0.498398 -0.863252 0.079973
vn 0.497378 -0.861485 0.102268
vn 0.804775 -0.584703 0.102268
vn 0.973019 -0.206822 0.102268
vn 0.973019 -0.206821 0.102268
vn 0.975015 -0.207246 0.079973
vn 0.884655 -0.450754 0.119190
vn 0.806889 -0.586239 0.072485
vn 0.804775 -0.584703 0.102268
vn 0.000000 0.000000 1.000000
vn 0.000000 0.000000 1.000000
vn 0.000000 0.000000 1.000000
vn 0.000000 0.000000 1.000000
vn 0.000000 0.000000 1.000000
vn 0.000000 0.000000 1.000000
vn 0.000000 0.000000 1.000000
vn 0.000000 0.000000 1.000000
vn 0.000000 0.000000 1.000000
vn 0.000000 0.000000 1.000000
vn 0.000000 0.000000 1.000000
vn 0.000000 0.000000 1.000000
vn 0.000000 0.000000 1.000000
vn 0.000000 0.000000 1.000000
vn 0.000000 0.000000 1.000000
vn 0.000000 0.000000 1.000000
vn 0.000000 0.000000 1.000000
vn 0.000000 0.000000 1.000000
vn -0.792443 0.609946 0.000000
vn -0.792443 0.609946 0.000000
vn -0.915386 0.402578 0.000000
vn -0.915386 0.402578 0.000000
vn -0.985130 0.171813 0.000000
vn -0.997621 -0.068936 -0.000000
vn -0.985130 0.171813 0.000000
vn -0.997621 -0.068936 0.000000
vn -0.952134 -0.305679 0.000000
vn -0.952134 -0.305679 0.000000
vn -0.851313 -0.524658 0.000000
vn -0.701017 -0.713144 -0.000000
vn -0.851313 -0.524658 0.000000
vn -0.701017 -0.713144 0.000000
vn -0.509980 -0.860186 0.000000
vn -0.509980 -0.860186 0.000000
vn -0.289305 -0.957237 0.000000
vn -0.289305 -0.957237 0.000000
vn -0.051817 -0.998657 0.000000
vn 0.188683 -0.982038 0.000000
vn -0.051817 -0.998657 0.000000
vn 0.188683 -0.982038 0.000000
vn 0.418218 -0.908347 0.000000
vn 0.418218 -0.908347 0.000000
vn 0.623447 -0.781866 0.000000
vn 0.623447 -0.781866 0.000000
vn -0.713145 0.701017 0.000000
vn -0.713145 0.701017 0.000000
vn 0.713145 -0.701017 0.000000
vn 0.713145 -0.701017 0.000000
vn 0.000000 0.000000 -1.000000
vn 0.000000 0.000000 -1.000000
vn 0.000000 0.000000 -1.000000
vn 0.000000 0.000000 -1.000000
vn 0.000000 0.000000 -1.000000
vn 0.000000 0.000000 -1.000000
vn 0.000000 0.000000 -1.000000
vn 0.000000 -0.000000 -1.000000
vn 0.000000 -0.000000 -1.000000
vn 0.000000 0.000000 -1.000000
vn 0.000000 0.000000 -1.000000
vn 0.000000 0.000000 -1.000000
vn 0.000000 0.000000 -1.000000
vn 0.000000 -0.000000 -1.000000
vn 0.000000 0.000000 -1.000000
vn 0.000000 -0.000000 -1.000000
vn 0.000000 -0.000000 -1.000000
vn 0.000000 0.000000 -1.000000
vn 0.000000 0.000000 -1.000000
vn 0.000000 0.000000 -1.000000
vn 0.000000 0.000000 -1.000000
vn 0.000000 0.000000 -1.000000
vn 0.000000 0.000000 -1.000000
vn -0.000000 -0.000000 -1.000000
vn -0.000000 -0.000000 -1.000000
vn 0.000000 0.000000 -1.000000
vn 0.000000 0.000000 1.000000
vn 0.000000 0.000000 1.000000
vn 0.000000 0.000000 1.000000
vn 0.000000 0.000000 1.000000
vn 0.000000 0.000000 1.000000
vn 0.000000 0.000000 1.000000
vn 0.000000 0.000000 1.000000
vn 0.000000 0.000000 1.000000
vn 0.000000 0.000000 1.000000
vn 0.000000 0.000000 1.000000
vn 0.000000 0.000000 1.000000
vn 0.000000 0.000000 1.000000
vn 0.000000 0.000000 1.000000
vn 0.000000 0.000000 1.000000
vn 0.000000 0.000000 1.000000
vn 0.000000 0.000000 1.000000
vn 0.000000 0.000000 1.000000
vn 0.000000 0.000000 1.000000
vn 0.000000 0.000000 1.000000
vn 0.000000 0.000000 1.000000
vn 0.000000 0.000000 1.000000
vn 0.000000 0.000000 1.000000
vn 0.000000 0.000000 1.000000
vn 0.000000 0.000000 1.000000
vn 0.000000 0.000000 1.000000
vn 0.000000 0.000000 1.000000
vn 0.000000 0.000000 1.000000
vn 0.000000 0.000000 1.000000
vn 0.000000 0.000000 1.000000
vn 0.000000 0.000000 1.000000
vn 0.000000 0.000000 1.000000
vn 0.000000 0.000000 1.000000
vn 0.000000 0.000000 1.000000
vn 0.000000 0.000000 1.000000
vn 0.000000 0.000000 1.000000
vn 0.000000 0.000000 1.000000
vn 0.000000 0.000000 1.000000
vn 0.000000 0.000000 1.000000
vn 0.000000 0.000000 1.000000
vn 0.000000 0.000000 1.000000
vn 0.000000 0.000000 1.000000
vn 0.000000 0.000000 1.000000
vn 0.000000 0.000000 1.000000
vn 0.000000 0.000000 1.000000
vn 0.000000 0.000000 1.000000
vn 0.000000 0.000000 1.000000
vn 0.000000 0.000000 1.000000
vn 0.000000 0.000000 1.000000
vn 0.000000 0.000000 1.000000
vn 0.000000 0.000000 1.000000
vn 0.792443 -0.609946 0.000000
vn 0.792443 -0.609946 0.000000
vn 0.915386 -0.402578 0.000000
vn 0.915386 -0.402578 0.000000
vn 0.985129 -0.171814 0.000000
vn 0.997621 0.068936 0.000000
vn 0.985129 -0.171814 0.000000
vn 0.997621 0.068936 0.000000
vn 0.952134 0.305679 0.000000
vn 0.952134 0.305679 -0.000000
vn 0.851314 0.524657 0.000000
vn 0.851314 0.524657 -0.000000
vn 0.701016 0.713145 0.000000
vn 0.509980 0.860186 0.000000
vn 0.701016 0.713145 -0.000000
vn 0.289305 0.957237 0.000000
vn 0.509980 0.860186 0.000000
vn 0.051817 0.998657 0.000000
vn 0.289305 0.957237 0.000000
vn 0.051817 0.998657 0.000000
vn -0.188684 0.982038 0.000000
vn -0.418217 0.908347 0.000000
vn -0.188684 0.982038 0.000000
vn -0.418217 0.908347 0.000000
vn -0.623447 0.781866 0.000000
vn -0.623447 0.781866 0.000000
vn 0.984508 0.141551 0.103476
vn 0.982409 0.155598 0.103255
vn 0.984508 -0.141551 0.103476
vn 0.982409 -0.155598 0.103255
vn 0.906136 0.413818 0.087594
vn 0.969365 0.206045 0.133706
vn 0.751998 0.651610 0.099518
vn 0.537479 0.836334 0.107990
vn 0.801523 0.582340 0.135796
vn 0.884655 0.450754 0.119190
vn 0.973019 0.206822 0.102268
vn 0.975015 0.207246 0.079973
vn 0.973019 0.206821 0.102268
vn 0.280635 0.955757 0.088164
vn 0.495690 0.858560 0.131018
vn 0.702066 0.702066 0.119190
vn 0.804775 0.584703 0.102268
vn 0.806889 0.586239 0.072485
vn 0.804775 0.584703 0.102268
vn 0.103539 0.985105 0.137288
vn 0.000000 0.995370 0.096118
vn -0.279926 0.953341 0.113055
vn 0.451564 0.886244 0.103255
vn 0.155598 0.982409 0.103255
vn 0.497378 0.861485 0.102268
vn 0.497378 0.861485 0.102268
vn 0.498398 0.863252 0.079973
vn -0.538481 0.837892 0.089302
vn -0.306486 0.943266 0.127731
vn -0.155319 0.980648 0.119191
vn 0.103980 0.989308 0.102268
vn 0.104194 0.991336 0.079973
vn 0.103981 0.989307 0.102269
vn -0.752454 0.652005 0.093281
vn -0.903205 0.412480 0.118666
vn -0.662711 0.736016 0.138183
vn -0.307397 0.946070 0.102268
vn -0.665622 0.739248 0.102268
vn -0.450754 0.884655 0.119190
vn -0.308204 0.948555 0.072485
vn -0.307397 0.946070 0.102268
vn -0.985714 0.141724 0.091008
vn -0.906513 0.403606 0.123843
vn -0.703327 0.703327 0.103255
vn -0.886244 0.451564 0.103255
vn -0.666987 0.740765 0.079973
vn -0.665622 0.739248 0.102268
vn -0.990365 0.000000 0.138481
vn -0.985714 -0.141724 0.091008
vn -0.980648 0.155319 0.119190
vn -0.994757 0.000000 0.102269
vn -0.908756 0.404604 0.102268
vn -0.910619 0.405434 0.079973
vn -0.908756 0.404604 0.102269
vn -0.903205 -0.412480 0.118666
vn -0.752454 -0.652005 0.093281
vn -0.906513 -0.403606 0.123843
vn -0.994757 0.000000 0.102269
vn -0.980648 -0.155319 0.119190
vn -0.997369 0.000000 0.072485
vn -0.538481 -0.837892 0.089302
vn -0.662711 -0.736016 0.138183
vn -0.908756 -0.404604 0.102268
vn -0.886244 -0.451564 0.103255
vn -0.703327 -0.703327 0.103255
vn -0.910619 -0.405434 0.079973
vn -0.908756 -0.404604 0.102269
vn -0.279926 -0.953341 0.113055
vn 0.000000 -0.995370 0.096118
vn -0.306486 -0.943266 0.127731
vn -0.665622 -0.739248 0.102268
vn -0.665622 -0.739248 0.102268
vn -0.450754 -0.884655 0.119190
vn -0.666987 -0.740765 0.079973
vn 0.280635 -0.955757 0.088164
vn 0.103539 -0.985105 0.137288
vn -0.308204 -0.948555 0.072485
vn -0.307397 -0.946070 0.102268
vn -0.307397 -0.946070 0.102268
vn -0.155319 -0.980648 0.119191
vn 0.537479 -0.836334 0.107990
vn 0.751998 -0.651610 0.099518
vn 0.495690 -0.858560 0.131018
vn 0.104194 -0.991336 0.079973
vn 0.103980 -0.989308 0.102268
vn 0.155598 -0.982409 0.103255
vn 0.451564 -0.886244 0.103255
vn 0.103981 -0.989307 0.102268
vn 0.497378 -0.861485 0.102268
vn 0.906136 -0.413818 0.087594
vn 0.969365 -0.206045 0.133706
vn 0.801523 -0.582340 0.135796
vn 0.702066 -0.702066 0.119190
vn 0.498398 -0.863252 0.079973
vn 0.497378 -0.861485 0.102268
vn 0.804775 -0.584703 0.102268
vn 0.973019 -0.206822 0.102268
vn 0.973019 -0.206821 0.102268
vn 0.975015 -0.207246 0.079973
vn 0.884655 -0.450754 0.119190
vn 0.806889 -0.586239 0.072485
vn 0.804775 -0.584703 0.102268
vn 0.000000 0.000000 1.000000
vn 0.000000 0.000000 1.000000
vn 0.000000 0.000000 1.000000
vn 0.000000 0.000000 1.000000
vn 0.000000 0.000000 1.000000
vn 0.000000 0.000000 1.000000
vn 0.000000 0.000000 1.000000
vn 0.000000 0.000000 1.000000
vn 0.000000 0.000000 1.000000
vn 0.000000 0.000000 1.000000
vn 0.000000 0.000000 1.000000
vn 0.000000 0.000000 1.000000
vn 0.000000 0.000000 1.000000
vn 0.000000 0.000000 1.000000
vn 0.000000 0.000000 1.000000
vn 0.000000 0.000000 1.000000
vn 0.000000 0.000000 1.000000
vn 0.000000 0.000000 1.000000
g MeshExport
f 1//1 2//1 3//1
f 3//2 2//2 4//2
f 4//3 5//3 6//3
f 2//4 5//4 4//4
f 6//5 7//5 8//5
f 8//6 7//6 9//6
f 5//7 7//7 6//7
f 7//8 10//8 9//8
f 9//9 11//9 12//9
f 10//10 11//10 9//10
f 12//11 13//11 14//11
f 14//12 13//12 15//12
f 11//13 13//13 12//13
f 13//14 16//14 15//14
f 15//15 17//15 18//15
f 16//16 17//16 15//16
f 18//17 19//17 20//17
f 17//18 19//18 18//18
f 20//19 21//19 22//19
f 22//20 21//20 23//20
f 19//21 21//21 20//21
f 21//22 24//22 23//22
f 23//23 25//23 26//23
f 24//24 25//24 23//24
f 26//25 27//25 28//25
f 25//26 27//26 26//26
f 29//27 1//27 3//27
f 29//28 3//28 30//28
f 27//29 31//29 28//29
f 28//30 31//30 32//30
f 13//31 11//31 16//31
f 10//32 7//32 11//32
f 16//33 21//33 17//33
f 17//34 21//34 19//34
f 11//35 21//35 16//35
f 21//36 25//36 24//36
f 11//37 25//37 21//37
f 2//38 1//38 5//38
f 5//39 1//39 7//39
f 7//40 1//40 11//40
f 11//41 1//41 25//41
f 1//42 27//42 25//42
f 1//43 29//43 27//43
f 29//44 31//44 27//44
f 31//45 33//45 34//45
f 35//46 33//46 36//46
f 36//47 33//47 29//47
f 29//48 33//48 31//48
f 34//49 37//49 38//49
f 33//50 39//50 34//50
f 34//51 39//51 37//51
f 37//52 40//52 41//52
f 41//53 40//53 42//53
f 43//54 40//54 44//54
f 44//55 40//55 39//55
f 39//56 40//56 37//56
f 45//57 14//57 15//57
f 46//58 12//58 14//58
f 46//59 14//59 45//59
f 47//60 15//60 18//60
f 47//61 18//61 20//61
f 47//62 45//62 15//62
f 48//63 9//63 12//63
f 48//64 12//64 46//64
f 49//65 20//65 22//65
f 49//66 47//66 20//66
f 50//67 8//67 9//67
f 50//68 9//68 48//68
f 51//69 22//69 23//69
f 51//70 49//70 22//70
f 52//71 6//71 8//71
f 52//72 8//72 50//72
f 4//73 6//73 52//73
f 53//74 51//74 23//74
f 26//75 53//75 23//75
f 54//76 4//76 52//76
f 55//77 53//77 26//77
f 3//78 4//78 54//78
f 28//79 55//79 26//79
f 56//80 3//80 54//80
f 57//81 55//81 28//81
f 58//82 3//82 56//82
f 59//83 57//83 28//83
f 60//84 3//84 58//84
f 61//85 59//85 28//85
f 30//86 3//86 60//86
f 30//87 62//87 63//87
f 30//88 64//88 62//88
f 30//89 60//89 64//89
f 32//90 61//90 28//90
f 32//91 65//91 61//91
f 32//92 66//92 65//92
f 32//93 63//93 66//93
f 32//94 30//94 63//94
f 67//95 32//95 68//95
f 67//96 30//96 32//96
f 67//97 69//97 70//97
f 67//98 70//98 30//98
f 71//99 68//99 72//99
f 73//100 67//100 68//100
f 73//101 68//101 71//101
f 74//102 71//102 75//102
f 74//103 75//103 76//103
f 74//104 77//104 78//104
f 74//105 78//105 73//105
f 74//106 73//106 71//106
f 31//107 34//107 32//107
f 32//108 34//108 68//108
f 68//109 38//109 72//109
f 34//110 38//110 68//110
f 72//111 37//111 71//111
f 71//112 37//112 75//112
f 38//113 37//113 72//113
f 37//114 41//114 75//114
f 75//115 42//115 76//115
f 41//116 42//116 75//116
f 76//117 40//117 74//117
f 42//118 40//118 76//118
f 74//119 43//119 77//119
f 77//120 43//120 78//120
f 40//121 43//121 74//121
f 78//122 44//122 73//122
f 43//123 44//123 78//123
f 73//124 39//124 67//124
f 44//125 39//125 73//125
f 39//126 33//126 67//126
f 67//127 35//127 69//127
f 69//128 35//128 70//128
f 33//129 35//129 67//129
f 35//130 36//130 70//130
f 70//131 29//131 30//131
f 36//132 29//132 70//132
f 79//133 61//133 65//133
f 80//134 81//134 82//134
f 79//135 59//135 61//135
f 81//136 83//136 82//136
f 84//137 65//137 66//137
f 84//138 79//138 65//138
f 85//139 66//139 63//139
f 85//140 63//140 62//140
f 85//141 84//141 66//141
f 86//142 87//142 80//142
f 86//143 82//143 79//143
f 86//144 80//144 82//144
f 86//145 79//145 84//145
f 88//146 62//146 64//146
f 88//147 85//147 62//147
f 89//148 90//148 87//148
f 89//149 84//149 85//149
f 89//150 87//150 86//150
f 89//151 86//151 84//151
f 91//152 88//152 64//152
f 91//153 64//153 60//153
f 91//154 60//154 58//154
f 92//155 93//155 90//155
f 92//156 94//156 93//156
f 92//157 89//157 85//157
f 92//158 85//158 88//158
f 92//159 90//159 89//159
f 95//160 58//160 56//160
f 95//161 91//161 58//161
f 96//162 97//162 94//162
f 96//163 88//163 91//163
f 96//164 94//164 92//164
f 96//165 92//165 88//165
f 98//166 56//166 54//166
f 98//167 54//167 52//167
f 98//168 95//168 56//168
f 99//169 91//169 95//169
f 99//170 95//170 98//170
f 99//171 100//171 97//171
f 99//172 97//172 96//172
f 99//173 96//173 91//173
f 101//174 52//174 50//174
f 101//175 98//175 52//175
f 102//176 103//176 100//176
f 102//177 104//177 103//177
f 102//178 100//178 99//178
f 102//179 99//179 98//179
f 105//180 101//180 50//180
f 105//181 50//181 48//181
f 106//182 107//182 104//182
f 106//183 101//183 105//183
f 106//184 102//184 98//184
f 106//185 104//185 102//185
f 106//186 98//186 101//186
f 108//187 48//187 46//187
f 108//188 46//188 45//188
f 108//189 105//189 48//189
f 109//190 106//190 105//190
f 109//191 110//191 107//191
f 109//192 107//192 106//192
f 111//193 45//193 47//193
f 111//194 108//194 45//194
f 112//195 105//195 108//195
f 112//196 113//196 110//196
f 112//197 114//197 113//197
f 112//198 110//198 109//198
f 112//199 109//199 105//199
f 115//200 47//200 49//200
f 115//201 49//201 51//201
f 115//202 111//202 47//202
f 116//203 112//203 108//203
f 116//204 108//204 111//204
f 116//205 117//205 114//205
f 116//206 114//206 112//206
f 118//207 51//207 53//207
f 118//208 115//208 51//208
f 119//209 117//209 116//209
f 119//210 111//210 115//210
f 119//211 116//211 111//211
f 119//212 120//212 117//212
f 121//213 53//213 55//213
f 121//214 55//214 57//214
f 121//215 118//215 53//215
f 122//216 120//216 119//216
f 122//217 115//217 118//217
f 122//218 123//218 120//218
f 122//219 124//219 123//219
f 122//220 119//220 115//220
f 122//221 118//221 121//221
f 125//222 57//222 59//222
f 125//223 59//223 79//223
f 125//224 121//224 57//224
f 126//225 127//225 124//225
f 126//226 124//226 122//226
f 126//227 122//227 121//227
f 126//228 121//228 125//228
f 128//229 79//229 82//229
f 128//230 125//230 79//230
f 128//231 82//231 83//231
f 128//232 83//232 127//232
f 128//233 127//233 126//233
f 128//234 126//234 125//234
f 120//235 113//235 114//235
f 120//236 114//236 117//236
f 104//237 107//237 110//237
f 124//238 120//238 123//238
f 97//239 100//239 103//239
f 97//240 103//240 104//240
f 81//241 124//241 127//241
f 81//242 127//242 83//242
f 94//243 110//243 113//243
f 94//244 113//244 120//244
f 94//245 104//245 110//245
f 94//246 120//246 124//246
f 94//247 97//247 104//247
f 80//248 124//248 81//248
f 87//249 90//249 93//249
f 87//250 93//250 94//250
f 87//251 94//251 124//251
f 87//252 124//252 80//252
g MeshExport001
g MeshExport002
g MeshExport003
g MeshExport004
g MeshExport005
g MeshExport006
g MeshExport007
g MeshExport008
f 129//253 130//253 131//253
f 131//254 130//254 132//254
f 132//255 133//255 134//255
f 130//256 133//256 132//256
f 134//257 135//257 136//257
f 136//258 135//258 137//258
f 133//259 135//259 134//259
f 135//260 138//260 137//260
f 137//261 139//261 140//261
f 138//262 139//262 137//262
f 140//263 141//263 142//263
f 142//264 141//264 143//264
f 139//265 141//265 140//265
f 141//266 144//266 143//266
f 143//267 145//267 146//267
f 144//268 145//268 143//268
f 146//269 147//269 148//269
f 145//270 147//270 146//270
f 148//271 149//271 150//271
f 150//272 149//272 151//272
f 147//273 149//273 148//273
f 149//274 152//274 151//274
f 151//275 153//275 154//275
f 152//276 153//276 151//276
f 154//277 155//277 156//277
f 153//278 155//278 154//278
f 157//279 129//279 131//279
f 157//280 131//280 158//280
f 155//281 159//281 156//281
f 156//282 159//282 160//282
f 141//283 139//283 144//283
f 138//284 135//284 139//284
f 144//285 149//285 145//285
f 145//286 149//286 147//286
f 139//287 149//287 144//287
f 149//288 153//288 152//288
f 139//289 153//289 149//289
f 130//290 129//290 133//290
f 133//291 129//291 135//291
f 135//292 129//292 139//292
f 139//293 129//293 153//293
f 129//294 155//294 153//294
f 129//295 157//295 155//295
f 157//296 159//296 155//296
f 159//297 161//297 162//297
f 163//298 161//298 164//298
f 164//299 161//299 157//299
f 157//300 161//300 159//300
f 162//301 165//301 166//301
f 161//302 167//302 162//302
f 162//303 167//303 165//303
f 165//304 168//304 169//304
f 169//305 168//305 170//305
f 171//306 168//306 172//306
f 172//307 168//307 167//307
f 167//308 168//308 165//308
f 173//309 142//309 143//309
f 174//310 140//310 142//310
f 174//311 142//311 173//311
f 175//312 143//312 146//312
f 175//313 146//313 148//313
f 175//314 173//314 143//314
f 176//315 137//315 140//315
f 176//316 140//316 174//316
f 177//317 148//317 150//317
f 177//318 175//318 148//318
f 178//319 136//319 137//319
f 178//320 137//320 176//320
f 179//321 150//321 151//321
f 179//322 177//322 150//322
f 180//323 134//323 136//323
f 180//324 136//324 178//324
f 132//325 134//325 180//325
f 181//326 179//326 151//326
f 154//327 181//327 151//327
f 182//328 132//328 180//328
f 183//329 181//329 154//329
f 131//330 132//330 182//330
f 156//331 183//331 154//331
f 184//332 131//332 182//332
f 185//333 183//333 156//333
f 186//334 131//334 184//334
f 187//335 185//335 156//335
f 188//336 131//336 186//336
f 189//337 187//337 156//337
f 158//338 131//338 188//338
f 158//339 190//339 191//339
f 158//340 192//340 190//340
f 158//341 188//341 192//341
f 160//342 189//342 156//342
f 160//343 193//343 189//343
f 160//344 194//344 193//344
f 160//345 191//345 194//345
f 160//346 158//346 191//346
f 195//347 160//347 196//347
f 195//348 158//348 160//348
f 195//349 197//349 198//349
f 195//350 198//350 158//350
f 199//351 196//351 200//351
f 201//352 195//352 196//352
f 201//353 196//353 199//353
f 202//354 199//354 203//354
f 202//355 203//355 204//355
f 202//356 205//356 206//356
f 202//357 206//357 201//357
f 202//358 201//358 199//358
f 159//359 162//359 160//359
f 160//360 162//360 196//360
f 196//361 166//361 200//361
f 162//362 166//362 196//362
f 200//363 165//363 199//363
f 199//364 165//364 203//364
f 166//365 165//365 200//365
f 165//366 169//366 203//366
f 203//367 170//367 204//367
f 169//368 170//368 203//368
f 204//369 168//369 202//369
f 170//370 168//370 204//370
f 202//371 171//371 205//371
f 205//372 171//372 206//372
f 168//373 171//373 202//373
f 206//374 172//374 201//374
f 171//375 172//375 206//375
f 201//376 167//376 195//376
f 172//377 167//377 201//377
f 167//378 161//378 195//378
f 195//379 163//379 197//379
f 197//380 163//380 198//380
f 161//381 163//381 195//381
f 163//382 164//382 198//382
f 198//383 157//383 158//383
f 164//384 157//384 198//384
f 207//385 189//385 193//385
f 208//386 209//386 210//386
f 207//387 187//387 189//387
f 209//388 211//388 210//388
f 212//389 193//389 194//389
f 212//390 207//390 193//390
f 213//391 194//391 191//391
f 213//392 191//392 190//392
f 213//393 212//393 194//393
f 214//394 215//394 208//394
f 214//395 210//395 207//395
f 214//396 208//396 210//396
f 214//397 207//397 212//397
f 216//398 190//398 192//398
f 216//399 213//399 190//399
f 217//400 218//400 215//400
f 217//401 212//401 213//401
f 217//402 215//402 214//402
f 217//403 214//403 212//403
f 219//404 216//404 192//404
f 219//405 192//405 188//405
f 219//406 188//406 186//406
f 220//407 221//407 218//407
f 220//408 222//408 221//408
f 220//409 217//409 213//409
f 220//410 213//410 216//410
f 220//411 218//411 217//411
f 223//412 186//412 184//412
f 223//413 219//413 186//413
f 224//414 225//414 222//414
f 224//415 216//415 219//415
f 224//416 222//416 220//416
f 224//417 220//417 216//417
f 226//418 184//418 182//418
f 226//419 182//419 180//419
f 226//420 223//420 184//420
f 227//421 219//421 223//421
f 227//422 223//422 226//422
f 227//423 228//423 225//423
f 227//424 225//424 224//424
f 227//425 224//425 219//425
f 229//426 180//426 178//426
f 229//427 226//427 180//427
f 230//428 231//428 228//428
f 230//429 232//429 231//429
f 230//430 228//430 227//430
f 230//431 227//431 226//431
f 233//432 229//432 178//432
f 233//433 178//433 176//433
f 234//434 235//434 232//434
f 234//435 229//435 233//435
f 234//436 230//436 226//436
f 234//437 232//437 230//437
f 234//438 226//438 229//438
f 236//439 176//439 174//439
f 236//440 174//440 173//440
f 236//441 233//441 176//441
f 237//442 234//442 233//442
f 237//443 238//443 235//443
f 237//444 235//444 234//444
f 239//445 173//445 175//445
f 239//446 236//446 173//446
f 240//447 233//447 236//447
f 240//448 241//448 238//448
f 240//449 242//449 241//449
f 240//450 238//450 237//450
f 240//451 237//451 233//451
f 243//452 175//452 177//452
f 243//453 177//453 179//453
f 243//454 239//454 175//454
f 244//455 240//455 236//455
f 244//456 236//456 239//456
f 244//457 245//457 242//457
f 244//458 242//458 240//458
f 246//459 179//459 181//459
f 246//460 243//460 179//460
f 247//461 245//461 244//461
f 247//462 239//462 243//462
f 247//463 244//463 239//463
f 247//464 248//464 245//464
f 249//465 181//465 183//465
f 249//466 183//466 185//466
f 249//467 246//467 181//467
f 250//468 248//468 247//468
f 250//469 243//469 246//469
f 250//470 251//470 248//470
f 250//471 252//471 251//471
f 250//472 247//472 243//472
f 250//473 246//473 249//473
f 253//474 185//474 187//474
f 253//475 187//475 207//475
f 253//476 249//476 185//476
f 254//477 255//477 252//477
f 254//478 252//478 250//478
f 254//479 250//479 249//479
f 254//480 249//480 253//480
f 256//481 207//481 210//481
f 256//482 253//482 207//482
f 256//483 210//483 211//483
f 256//484 211//484 255//484
f 256//485 255//485 254//485
f 256//486 254//486 253//486
f 248//487 241//487 242//487
f 248//488 242//488 245//488
f 232//489 235//489 238//489
f 252//490 248//490 251//490
f 225//491 228//491 231//491
f 225//492 231//492 232//492
f 209//493 252//493 255//493
f 209//494 255//494 211//494
f 222//495 238//495 241//495
f 222//496 241//496 248//496
f 222//497 232//497 238//497
f 222//498 248//498 252//498
f 222//499 225//499 232//499
f 208//500 252//500 209//500
f 215//501 218//501 221//501
f 215//502 221//502 222//502
f 215//503 222//503 252//503
f 215//504 252//504 208//504
